<svg width="97" height="99" xmlns="http://www.w3.org/2000/svg">
 <style>.st0{fill:#6dc8f1}.st1{fill:#fff}</style>

 <g>
  <title>background</title>
  <rect fill="none" id="canvas_background" height="101" width="99" y="-1" x="-1"/>
 </g>
 <g>
  <title>Layer 1</title>
  <path d="m7.7,0l32.7,0c4.2,0 7.6,3.4 7.6,7.7l0,32.7c0,4.2 -3.4,7.7 -7.7,7.7l-32.6,0c-4.3,-0.1 -7.7,-3.5 -7.7,-7.8l0,-32.6c0,-4.3 3.4,-7.7 7.7,-7.7zm49,51l32.7,0c4.2,0 7.7,3.4 7.7,7.7l0,32.7c0,4.2 -3.4,7.7 -7.7,7.7l-32.7,0c-4.2,0 -7.7,-3.4 -7.7,-7.7l0,-32.7c0,-4.3 3.4,-7.7 7.7,-7.7z" class="st0" id="Combined-Shape"/>
  <path d="m55.4,20l19.3,0c2.4,0 4.4,2 4.4,4.4l0,19.3c0,2.4 -2,4.4 -4.4,4.4l-19.3,0c-2.4,-0.1 -4.4,-2.1 -4.4,-4.5l0,-19.2c0,-2.4 2,-4.4 4.4,-4.4zm-33,31l19.3,0c2.4,0 4.4,2 4.4,4.4l0,19.3c0,2.4 -2,4.4 -4.4,4.4l-19.3,0c-2.4,-0.1 -4.4,-2.1 -4.4,-4.5l0,-19.2c0,-2.4 2,-4.4 4.4,-4.4z" class="st1" id="Combined-Shape_1_"/>
 </g>
</svg>